<svg xmlns="http://www.w3.org/2000/svg" width="112" height="24" viewBox="0 0 133 24">
  <g id="logo-color" fill="none" fill-rule="evenodd">
    <g id="D_blue_RGB" fill="#550FED" fill-rule="nonzero">
      <path d="M.012 23.848h11.55c6.58 0 11.915-5.328 11.915-11.901 0-6.573-5.334-11.902-11.915-11.902H.012v23.803z"
            opacity=".3"></path>
      <path d="M.068.045H.012v23.803h.056c6.58 0 11.914-5.328 11.914-11.901C11.982 5.374 6.648.045.068.045"></path>
      <g>
        <path
          d="M41.337 3h-2.463a.118.118 0 0 0-.117.12v4.605c-.76-.981-2.074-1.559-3.578-1.559C31.483 6.166 29 9.415 29 12.45c0 3.088 2.267 6.283 6.061 6.283 1.47 0 2.86-.601 3.696-1.583v1.15c0 .065.052.119.117.119h2.463a.118.118 0 0 0 .117-.12V3.12A.118.118 0 0 0 41.337 3m-5.968 13.125c-1.947 0-3.53-1.649-3.53-3.676s1.583-3.676 3.53-3.676c1.888 0 3.483 1.683 3.483 3.676 0 1.992-1.595 3.676-3.483 3.676M49.838 6.166c-4.182 0-6.44 3.237-6.44 6.283 0 3.046 2.258 6.283 6.442 6.283 2.058-.025 3.983-1.053 5.418-2.898a.121.121 0 0 0-.034-.178l-2.085-1.184a.115.115 0 0 0-.15.032c-.849 1.155-1.963 1.765-3.222 1.765-1.722 0-3.18-1.233-3.375-2.831h9.39a.118.118 0 0 0 .117-.12v-.459c0-4.616-3.544-6.693-6.06-6.693m-.332 2.462c1.519 0 2.715.929 3.227 2.493h-6.321c.413-1.542 1.586-2.493 3.094-2.493M68.914 15.682l-2.155-1.305a.115.115 0 0 0-.158.039c-.707 1.134-1.678 1.709-2.886 1.709-2.053 0-3.601-1.58-3.601-3.676s1.548-3.676 3.601-3.676c1.208 0 2.152.56 2.887 1.71.034.054.104.07.157.038l2.155-1.305a.118.118 0 0 0 .054-.077.122.122 0 0 0-.017-.093c-1.312-1.938-3.025-2.88-5.235-2.88-4.183 0-6.44 3.237-6.44 6.283 0 3.046 2.257 6.283 6.44 6.283 2.128 0 4.136-1.105 5.237-2.884a.119.119 0 0 0-.04-.166M76.432 6.166c-4.183 0-6.44 3.237-6.44 6.283 0 3.046 2.257 6.283 6.44 6.283s6.44-3.237 6.44-6.283c0-3.046-2.257-6.283-6.44-6.283m0 9.959c-2.053 0-3.601-1.58-3.601-3.676s1.548-3.676 3.601-3.676 3.601 1.58 3.601 3.676c0 2.095-1.548 3.676-3.6 3.676M87.531 18.418h-2.453a.12.12 0 0 1-.12-.121V3.12a.12.12 0 0 1 .12-.121h2.453a.12.12 0 0 1 .119.121v15.175a.12.12 0 0 1-.119.122M101.851 6.48H99.39a.118.118 0 0 0-.117.12v1.125c-.76-.981-2.075-1.559-3.578-1.559-3.696 0-6.18 3.249-6.18 6.283 0 3.088 2.268 6.283 6.061 6.283 1.47 0 2.86-.601 3.697-1.583v1.15c0 .065.052.119.117.119h2.462a.118.118 0 0 0 .117-.12V6.6a.118.118 0 0 0-.117-.119m-5.967 9.645c-1.947 0-3.53-1.649-3.53-3.676s1.583-3.676 3.53-3.676c1.887 0 3.482 1.683 3.482 3.676 0 1.992-1.595 3.676-3.482 3.676M110.771 6.548c-.375-.246-.877-.382-1.413-.382-.9 0-1.707.493-2.18 1.31V6.6a.118.118 0 0 0-.117-.119h-2.321a.118.118 0 0 0-.117.12v11.698c0 .066.052.12.117.12h2.463a.118.118 0 0 0 .117-.12v-7.734c0-1.07.818-1.646 1.588-1.646.212 0 .639.14.85.312.03.025.069.033.105.022a.12.12 0 0 0 .079-.074l.876-2.49a.12.12 0 0 0-.047-.14"></path>
      </g>
    </g>
  </g>
</svg>
